<svg width="22" height="27" viewBox="0 0 22 27" fill="none" xmlns="http://www.w3.org/2000/svg">
<path d="M11.0561 7.21606C8.81476 7.21606 6.99121 9.03956 6.99121 11.281C6.99121 13.5224 8.8147 15.3459 11.0561 15.3459C13.2976 15.3459 15.121 13.5224 15.121 11.281C15.121 9.03956 13.2975 7.21606 11.0561 7.21606ZM11.0561 13.4698C9.84923 13.4698 8.86733 12.4879 8.86733 11.281C8.86733 10.0741 9.84923 9.09219 11.0561 9.09219C12.263 9.09219 13.2449 10.0741 13.2449 11.281C13.2449 12.4879 12.263 13.4698 11.0561 13.4698Z" fill="#959595"/>
<path d="M11 0C4.93455 0 0 4.91426 0 10.9548C0 14.0784 1.26291 17.5463 3.55616 20.7197C5.58655 23.5294 8.23045 25.8179 10.6286 26.8415L11 27L11.3714 26.8415C13.7696 25.818 16.4135 23.5294 18.4438 20.7197C20.737 17.5463 22 14.0783 22 10.9548C22 4.91426 17.0654 0 11 0ZM16.9133 19.6227C15.1824 22.0179 12.9989 23.978 11 24.946C9.00101 23.978 6.81763 22.018 5.08674 19.6227C3.0225 16.7662 1.88573 13.6879 1.88573 10.9547C1.88573 5.94976 5.97437 1.87792 11 1.87792C16.0256 1.87792 20.1143 5.94976 20.1143 10.9547C20.1143 13.6879 18.9774 16.7663 16.9133 19.6227Z" fill="#959595"/>
</svg>
