<?xml version="1.0" encoding="iso-8859-1"?>
<!-- Generator: Adobe Illustrator 19.0.0, SVG Export Plug-In . SVG Version: 6.00 Build 0)  -->
<svg version="1.1" id="Layer_1" xmlns="http://www.w3.org/2000/svg" xmlns:xlink="http://www.w3.org/1999/xlink" x="0px" y="0px"
	 viewBox="0 0 512 512" style="enable-background:new 0 0 512 512;" xml:space="preserve">
<g>
	<g>
		<path d="M256,130.576c-42.545,0-77.159,34.613-77.159,77.159s34.613,77.159,77.159,77.159s77.159-34.613,77.159-77.159
			S298.545,130.576,256,130.576z M256,249.282c-22.909,0-41.547-18.638-41.547-41.547s18.638-41.547,41.547-41.547
			c22.908,0,41.547,18.638,41.547,41.547S278.909,249.282,256,249.282z"/>
	</g>
</g>
<g>
	<g>
		<path d="M256,0C141.454,0,48.265,93.189,48.265,207.735c0,59.233,23.85,124.995,67.158,185.172
			c38.344,53.28,88.274,96.677,133.563,116.087L256,512l7.014-3.006c45.289-19.408,95.219-62.806,133.563-116.087
			c43.307-60.178,67.158-125.94,67.158-185.172C463.735,93.189,370.546,0,256,0z M367.672,372.105
			c-32.688,45.42-73.922,82.588-111.672,100.946c-37.751-18.358-78.984-55.525-111.672-100.946
			c-38.983-54.168-60.451-112.542-60.451-164.371c0-94.909,77.214-172.123,172.123-172.123s172.123,77.214,172.123,172.123
			C428.123,259.563,406.654,317.938,367.672,372.105z"/>
	</g>
</g>
<g>
</g>
<g>
</g>
<g>
</g>
<g>
</g>
<g>
</g>
<g>
</g>
<g>
</g>
<g>
</g>
<g>
</g>
<g>
</g>
<g>
</g>
<g>
</g>
<g>
</g>
<g>
</g>
<g>
</g>
</svg>
