<svg width="41" height="28" viewBox="0 0 41 28" fill="none" xmlns="http://www.w3.org/2000/svg">
<path d="M40.344 2.02792L39.001 0.66458C38.579 0.235852 38.0164 0 37.4157 0C36.815 0 36.252 0.235852 35.83 0.66458L16.959 19.821L5.16867 7.85179C4.74667 7.42374 4.18367 7.18755 3.583 7.18755C2.98267 7.18755 2.42 7.42374 1.99767 7.85179L0.654334 9.21479C0.232 9.64419 0 10.2161 0 10.8251C0 11.4346 0.232 12.0061 0.654334 12.4348L13.9663 25.9477C13.984 25.9731 14.0027 25.9968 14.0243 26.0184L15.3677 27.3594C15.7897 27.7865 16.3527 28 16.958 28H16.965C17.566 28 18.129 27.7865 18.5504 27.3594L19.894 26.0066C19.9157 25.9849 19.934 25.967 19.945 25.9487L40.3437 5.24321C41.2187 4.35699 41.2187 2.91515 40.344 2.02792Z" fill="#87BE5C"/>
</svg>
